<mxfile host="app.diagrams.net" modified="2023-10-30T00:36:42.358Z" agent="Mozilla/5.0 (Windows NT 10.0; Win64; x64) AppleWebKit/537.36 (KHTML, like Gecko) Chrome/118.0.0.0 Safari/537.36" etag="RiH5gqigg6UQuupHsIAb" version="22.0.8" type="github">
  <diagram id="C5RBs43oDa-KdzZeNtuy" name="Page-1">
    <mxGraphModel dx="794" dy="420" grid="1" gridSize="10" guides="1" tooltips="1" connect="1" arrows="1" fold="1" page="1" pageScale="1" pageWidth="827" pageHeight="1169" math="0" shadow="0">
      <root>
        <mxCell id="WIyWlLk6GJQsqaUBKTNV-0" />
        <mxCell id="WIyWlLk6GJQsqaUBKTNV-1" parent="WIyWlLk6GJQsqaUBKTNV-0" />
        <mxCell id="2ZtGgviqgPApkaIQbkzd-1" style="edgeStyle=orthogonalEdgeStyle;rounded=0;orthogonalLoop=1;jettySize=auto;html=1;" edge="1" parent="WIyWlLk6GJQsqaUBKTNV-1" source="WIyWlLk6GJQsqaUBKTNV-3" target="2ZtGgviqgPApkaIQbkzd-0">
          <mxGeometry relative="1" as="geometry" />
        </mxCell>
        <mxCell id="WIyWlLk6GJQsqaUBKTNV-3" value="Start" style="rounded=1;whiteSpace=wrap;html=1;fontSize=12;glass=0;strokeWidth=1;shadow=0;" parent="WIyWlLk6GJQsqaUBKTNV-1" vertex="1">
          <mxGeometry x="330" y="100" width="120" height="40" as="geometry" />
        </mxCell>
        <mxCell id="2ZtGgviqgPApkaIQbkzd-4" style="edgeStyle=orthogonalEdgeStyle;rounded=0;orthogonalLoop=1;jettySize=auto;html=1;" edge="1" parent="WIyWlLk6GJQsqaUBKTNV-1" source="2ZtGgviqgPApkaIQbkzd-0" target="2ZtGgviqgPApkaIQbkzd-5">
          <mxGeometry relative="1" as="geometry">
            <mxPoint x="220" y="300" as="targetPoint" />
          </mxGeometry>
        </mxCell>
        <mxCell id="2ZtGgviqgPApkaIQbkzd-0" value="Initialize a variable number to 1" style="ellipse;whiteSpace=wrap;html=1;" vertex="1" parent="WIyWlLk6GJQsqaUBKTNV-1">
          <mxGeometry x="325" y="180" width="130" height="80" as="geometry" />
        </mxCell>
        <mxCell id="2ZtGgviqgPApkaIQbkzd-6" style="edgeStyle=orthogonalEdgeStyle;rounded=0;orthogonalLoop=1;jettySize=auto;html=1;entryX=0;entryY=0.5;entryDx=0;entryDy=0;" edge="1" parent="WIyWlLk6GJQsqaUBKTNV-1" source="2ZtGgviqgPApkaIQbkzd-5" target="2ZtGgviqgPApkaIQbkzd-8">
          <mxGeometry relative="1" as="geometry">
            <mxPoint x="370" y="340" as="targetPoint" />
          </mxGeometry>
        </mxCell>
        <mxCell id="2ZtGgviqgPApkaIQbkzd-10" style="edgeStyle=orthogonalEdgeStyle;rounded=0;orthogonalLoop=1;jettySize=auto;html=1;" edge="1" parent="WIyWlLk6GJQsqaUBKTNV-1" source="2ZtGgviqgPApkaIQbkzd-5" target="2ZtGgviqgPApkaIQbkzd-9">
          <mxGeometry relative="1" as="geometry" />
        </mxCell>
        <mxCell id="2ZtGgviqgPApkaIQbkzd-13" style="edgeStyle=orthogonalEdgeStyle;rounded=0;orthogonalLoop=1;jettySize=auto;html=1;entryX=0;entryY=0.5;entryDx=0;entryDy=0;" edge="1" parent="WIyWlLk6GJQsqaUBKTNV-1" source="2ZtGgviqgPApkaIQbkzd-5" target="2ZtGgviqgPApkaIQbkzd-12">
          <mxGeometry relative="1" as="geometry" />
        </mxCell>
        <mxCell id="2ZtGgviqgPApkaIQbkzd-16" style="edgeStyle=orthogonalEdgeStyle;rounded=0;orthogonalLoop=1;jettySize=auto;html=1;" edge="1" parent="WIyWlLk6GJQsqaUBKTNV-1" source="2ZtGgviqgPApkaIQbkzd-5" target="2ZtGgviqgPApkaIQbkzd-15">
          <mxGeometry relative="1" as="geometry" />
        </mxCell>
        <mxCell id="2ZtGgviqgPApkaIQbkzd-5" value="&amp;nbsp; &amp;nbsp; &amp;nbsp;While&amp;nbsp; &amp;nbsp; &amp;nbsp; &amp;nbsp; &amp;nbsp; &amp;nbsp; &amp;nbsp; &amp;nbsp; &amp;nbsp; &amp;nbsp; &amp;nbsp; &amp;nbsp; &amp;nbsp;1 &amp;lt;= number &amp;lt;=51" style="ellipse;whiteSpace=wrap;html=1;align=center;" vertex="1" parent="WIyWlLk6GJQsqaUBKTNV-1">
          <mxGeometry x="330" y="300" width="120" height="80" as="geometry" />
        </mxCell>
        <mxCell id="2ZtGgviqgPApkaIQbkzd-7" value="%3" style="text;html=1;align=center;verticalAlign=middle;resizable=0;points=[];autosize=1;strokeColor=none;fillColor=none;" vertex="1" parent="WIyWlLk6GJQsqaUBKTNV-1">
          <mxGeometry x="450" y="290" width="40" height="30" as="geometry" />
        </mxCell>
        <mxCell id="2ZtGgviqgPApkaIQbkzd-8" value="Print is divisible by 3" style="ellipse;whiteSpace=wrap;html=1;" vertex="1" parent="WIyWlLk6GJQsqaUBKTNV-1">
          <mxGeometry x="520" y="240" width="120" height="80" as="geometry" />
        </mxCell>
        <mxCell id="2ZtGgviqgPApkaIQbkzd-9" value="Print is divisible by 3 and 5" style="ellipse;whiteSpace=wrap;html=1;" vertex="1" parent="WIyWlLk6GJQsqaUBKTNV-1">
          <mxGeometry x="120" y="300" width="120" height="80" as="geometry" />
        </mxCell>
        <mxCell id="2ZtGgviqgPApkaIQbkzd-11" value="%5 and %3" style="text;html=1;align=center;verticalAlign=middle;resizable=0;points=[];autosize=1;strokeColor=none;fillColor=none;" vertex="1" parent="WIyWlLk6GJQsqaUBKTNV-1">
          <mxGeometry x="250" y="310" width="80" height="30" as="geometry" />
        </mxCell>
        <mxCell id="2ZtGgviqgPApkaIQbkzd-12" value="Print is divisible by 5" style="ellipse;whiteSpace=wrap;html=1;" vertex="1" parent="WIyWlLk6GJQsqaUBKTNV-1">
          <mxGeometry x="520" y="380" width="120" height="80" as="geometry" />
        </mxCell>
        <mxCell id="2ZtGgviqgPApkaIQbkzd-14" value="%5" style="text;html=1;align=center;verticalAlign=middle;resizable=0;points=[];autosize=1;strokeColor=none;fillColor=none;" vertex="1" parent="WIyWlLk6GJQsqaUBKTNV-1">
          <mxGeometry x="450" y="378" width="40" height="30" as="geometry" />
        </mxCell>
        <mxCell id="2ZtGgviqgPApkaIQbkzd-17" style="edgeStyle=orthogonalEdgeStyle;rounded=0;orthogonalLoop=1;jettySize=auto;html=1;" edge="1" parent="WIyWlLk6GJQsqaUBKTNV-1" source="2ZtGgviqgPApkaIQbkzd-15" target="2ZtGgviqgPApkaIQbkzd-5">
          <mxGeometry relative="1" as="geometry" />
        </mxCell>
        <mxCell id="2ZtGgviqgPApkaIQbkzd-15" value="Increment number by 1" style="ellipse;whiteSpace=wrap;html=1;" vertex="1" parent="WIyWlLk6GJQsqaUBKTNV-1">
          <mxGeometry x="330" y="450" width="120" height="80" as="geometry" />
        </mxCell>
      </root>
    </mxGraphModel>
  </diagram>
</mxfile>
